<?xml version="1.0" encoding="utf-8"?>
<!-- Generator: Adobe Illustrator 21.0.2, SVG Export Plug-In . SVG Version: 6.00 Build 0)  -->
<svg version="1.1" id="Layer_1" xmlns="http://www.w3.org/2000/svg" xmlns:xlink="http://www.w3.org/1999/xlink" x="0px" y="0px"
	 viewBox="0 0 162 150" style="enable-background:new 0 0 162 150;" xml:space="preserve">
<style type="text/css">
	.st0{display:none;}
	.st1{display:inline;}
	.st2{fill:none;stroke:#3C746E;stroke-width:11;stroke-linecap:round;stroke-linejoin:round;stroke-miterlimit:10;}
	.st3{fill:#3C746E;}
</style>
<g id="Layer_1_1_" class="st0">
	<g class="st1">
		<polyline class="st2" points="60,29 82,7 104,29 		"/>
		<polyline class="st2" points="104,121.2 82,143.2 60,121.2 		"/>
		<line class="st2" x1="82" y1="7" x2="82" y2="143.2"/>
	</g>
	<g class="st1">
		<polyline class="st2" points="128.1,53.1 150.1,75.1 128.1,97.1 		"/>
		<polyline class="st2" points="35.9,97.1 13.9,75.1 35.9,53.1 		"/>
		<line class="st2" x1="150.1" y1="75.1" x2="13.9" y2="75.1"/>
	</g>
</g>
<g id="Layer_2">
	<g>
		<path class="st3" d="M144.7,19.4h-14.6h-24.4c0.7-1.5,1.1-3.2,1.1-5v-0.8c0-6.9-5.6-12.6-12.6-12.6H69.8
			c-6.9,0-12.6,5.6-12.6,12.6v0.8c0,1.8,0.4,3.5,1.1,5H33.9H19.3c-2.1,0-3.8,1.7-3.8,3.8s1.7,3.8,3.8,3.8h7.3v114.8
			c0,4,3.3,7.3,7.3,7.3h96.2c4,0,7.3-3.3,7.3-7.3V26.9h7.3c2.1,0,3.8-1.7,3.8-3.8S146.8,19.4,144.7,19.4z M64.8,14.3v-0.8
			c0-2.8,2.3-5,5-5h24.4c2.8,0,5,2.3,5,5v0.8c0,2.8-2.3,5-5,5H69.8C67,19.4,64.8,17.1,64.8,14.3z M129.9,141.4H34.1V26.9h35.7h24.4
			h35.7L129.9,141.4L129.9,141.4z"/>
		<path class="st3" d="M53.7,44.3c-2.1,0-3.8,1.7-3.8,3.8V122c0,2.1,1.7,3.8,3.8,3.8s3.8-1.7,3.8-3.8V48.1
			C57.5,46,55.8,44.3,53.7,44.3z"/>
		<path class="st3" d="M82,44.3c-2.1,0-3.8,1.7-3.8,3.8V122c0,2.1,1.7,3.8,3.8,3.8c2.1,0,3.8-1.7,3.8-3.8V48.1
			C85.8,46,84.1,44.3,82,44.3z"/>
		<path class="st3" d="M110.3,125.8c2.1,0,3.8-1.7,3.8-3.8V48.1c0-2.1-1.7-3.8-3.8-3.8c-2.1,0-3.8,1.7-3.8,3.8V122
			C106.5,124.1,108.2,125.8,110.3,125.8z"/>
	</g>
</g>
</svg>
